# xmcd CD database file
#
# Track frame offsets:
#	150
#	8351
#	18087
#	26885
#	37537
#	49487
#	60201
#	70370
#	79680
#	90735
#	99827
#	110902
#	120128
#	131022
#
# Disc length: 1904 seconds
#
# Revision: 4
# Processed by: cddbd v1.5.2PL0 Copyright (c) Steve Scherf et al.
# Submitted via: CDex 1.51
#
DISCID=9e076e0e
DTITLE=Johnny Cash - The shadow of ...  [CD 3-3]
DYEAR=2008
DGENRE=Country
TTITLE0=Always Alone
TTITLE1=The Story Of A Broken Heart
TTITLE2=Katy Too
TTITLE3=Fools Hall Of Frame
TTITLE4=Give Me Love To Rose
TTITLE5=Wide Open Road
TTITLE6=You Win Again
TTITLE7=Come In Stranger
TTITLE8=Don't Make Me Go
TTITLE9=Blue Train
TTITLE10=Oh Lonesome Me
TTITLE11=Down The Street To 301
TTITLE12=Cry, Cry, Cry
TTITLE13=Home Of The Blues
EXTD=YEAR: 2008
EXTT0=
EXTT1=
EXTT2=
EXTT3=
EXTT4=
EXTT5=
EXTT6=
EXTT7=
EXTT8=
EXTT9=
EXTT10=
EXTT11=
EXTT12=
EXTT13=
PLAYORDER=
